<?xml version="1.0" standalone="no"?>
<!DOCTYPE svg PUBLIC "-//W3C//DTD SVG 20010904//EN"
 "http://www.w3.org/TR/2001/REC-SVG-20010904/DTD/svg10.dtd">
<svg version="1.0" xmlns="http://www.w3.org/2000/svg"
 width="1024.000000pt" height="1024.000000pt" viewBox="0 0 1024.000000 1024.000000"
 preserveAspectRatio="xMidYMid meet">

<g transform="translate(0.000000,1024.000000) scale(0.100000,-0.100000)"
fill="#000000" stroke="none">
<path d="M4600 10224 c-236 -25 -447 -62 -690 -121 -223 -54 -321 -84 -550
-170 -96 -36 -193 -72 -215 -80 -69 -24 -455 -219 -553 -277 -51 -31 -95 -56
-97 -56 -6 0 -329 -212 -335 -220 -3 -3 -52 -41 -110 -85 -661 -494 -1177
-1119 -1536 -1860 -439 -906 -598 -1878 -473 -2895 23 -191 46 -317 100 -540
43 -178 157 -549 199 -645 10 -22 46 -105 80 -185 206 -480 521 -976 866
-1366 131 -147 402 -414 479 -469 22 -16 65 -53 95 -82 30 -29 69 -63 86 -75
18 -13 74 -55 125 -93 106 -80 341 -239 409 -277 25 -14 94 -53 155 -88 140
-81 416 -214 565 -273 200 -79 242 -93 380 -136 74 -24 155 -49 180 -57 74
-23 328 -81 430 -99 52 -8 120 -20 150 -25 30 -5 140 -19 245 -30 170 -19 231
-21 605 -17 318 3 442 8 530 21 185 27 422 66 460 77 19 5 109 27 200 49 539
131 1101 382 1580 703 468 314 932 755 1252 1187 43 58 82 110 87 116 5 6 57
83 114 171 254 384 458 815 592 1248 20 66 43 140 51 165 55 177 114 479 155
785 26 193 37 747 20 971 -23 305 -75 626 -143 884 -57 219 -183 597 -231 695
-8 17 -30 66 -48 110 -61 150 -291 583 -346 650 -4 6 -26 39 -47 75 -81 134
-307 433 -458 605 -107 121 -401 409 -513 503 -459 384 -938 673 -1454 876
-450 177 -862 278 -1356 332 -172 18 -858 17 -1035 -2z m-807 -1289 c54 -14
137 -59 137 -75 0 -11 -64 -90 -73 -90 -4 0 -27 10 -50 21 -23 12 -69 24 -104
27 -80 6 -113 -12 -113 -63 0 -42 17 -52 140 -85 173 -46 230 -100 230 -221 0
-77 -57 -152 -137 -180 -59 -21 -216 -17 -279 8 -54 21 -124 69 -124 85 0 13
71 88 83 88 6 0 32 -14 59 -32 41 -26 62 -32 123 -36 69 -4 75 -3 99 21 31 31
33 67 6 92 -11 10 -68 31 -127 47 -172 46 -223 92 -223 201 0 85 29 135 101
173 70 36 160 43 252 19z m685 1 c67 -18 130 -55 165 -97 l27 -32 -23 -15
c-12 -8 -34 -26 -49 -40 l-28 -26 -22 20 c-55 49 -81 59 -155 59 -63 0 -76 -3
-115 -30 -63 -44 -101 -122 -94 -194 11 -113 93 -191 203 -191 60 0 105 16
147 54 l29 26 51 -37 c28 -20 52 -38 54 -39 12 -8 -86 -89 -133 -110 -193 -88
-430 14 -487 209 -19 66 -14 174 11 238 62 161 246 251 419 205z m735 -16
c108 -40 183 -134 207 -257 31 -155 -53 -317 -200 -386 -67 -31 -215 -31 -284
1 -75 34 -129 84 -167 154 -32 60 -34 68 -34 163 0 122 17 166 96 248 100 103
238 131 382 77z m711 18 c174 -35 285 -182 274 -363 -9 -131 -77 -234 -196
-292 -50 -24 -69 -28 -147 -28 -82 0 -97 3 -156 32 -82 41 -139 101 -169 179
-18 49 -21 74 -18 149 4 108 26 159 95 229 53 54 88 75 158 92 65 16 90 16
159 2z m807 -36 c171 -89 153 -365 -28 -426 -27 -9 -80 -16 -127 -16 -131 0
-126 4 -126 -106 l0 -94 -70 0 -70 0 0 335 0 335 184 0 c182 0 184 0 237 -28z
m-3933 -1012 c28 -12 58 -30 67 -41 16 -17 16 -20 -15 -59 -17 -22 -33 -40
-35 -40 -2 0 -27 11 -57 25 -67 31 -135 33 -172 4 -54 -43 -19 -86 92 -113
156 -39 221 -98 222 -200 0 -114 -73 -185 -198 -194 -37 -2 -93 1 -123 7 -55
12 -159 66 -166 86 -2 6 15 30 37 53 l41 42 29 -20 c41 -29 106 -50 157 -50
79 0 116 64 63 111 -10 8 -56 26 -103 38 -158 42 -214 98 -205 208 7 85 58
140 150 164 52 13 161 3 216 -21z m2200 1 c51 -20 112 -66 112 -84 0 -7 -18
-30 -40 -52 l-40 -39 -22 20 c-49 43 -132 57 -195 33 -132 -50 -152 -265 -32
-343 64 -41 144 -38 206 10 17 13 35 24 38 24 15 0 85 -62 85 -75 0 -23 -82
-85 -134 -100 -66 -20 -151 -19 -212 2 -67 23 -154 110 -177 177 -23 66 -22
186 0 251 23 65 111 156 173 178 62 21 183 21 238 -2z m585 3 c56 -19 141 -92
166 -143 89 -177 15 -397 -156 -461 -47 -18 -73 -21 -138 -18 -126 7 -205 60
-262 176 -25 50 -28 68 -27 147 0 78 4 97 27 142 38 73 105 134 174 159 52 18
160 17 216 -2z m733 -17 c64 -32 128 -106 151 -172 22 -65 22 -165 -2 -235
-24 -73 -109 -159 -179 -183 -79 -27 -186 -23 -253 10 -74 37 -139 109 -159
181 -21 70 -20 173 0 230 29 81 106 156 193 188 61 23 186 13 249 -19z m1620
3 c32 -17 67 -41 77 -55 18 -25 18 -26 -14 -65 -32 -40 -52 -49 -64 -30 -14
22 -86 50 -129 50 -112 0 -178 -64 -184 -180 -7 -119 50 -190 158 -198 43 -3
66 1 98 17 22 11 43 25 47 31 11 18 36 10 72 -24 44 -41 41 -53 -24 -100 -117
-85 -301 -72 -400 29 -118 121 -122 327 -7 454 71 79 117 99 235 100 65 1 84
-3 135 -29z m-5776 -62 c18 -46 44 -107 57 -136 33 -72 153 -381 153 -393 0
-5 -31 -9 -68 -9 l-69 0 -12 43 c-26 87 -25 87 -170 87 l-128 0 -28 -65 -27
-65 -68 0 -69 0 100 248 c55 136 111 275 125 310 l26 62 73 0 72 0 33 -82z
m1180 32 c14 -34 186 -457 227 -557 4 -10 -13 -13 -65 -13 l-70 0 -25 63 -25
62 -131 3 -131 3 -14 -33 c-8 -18 -20 -48 -26 -65 -12 -33 -13 -33 -82 -33
-52 0 -69 3 -65 13 21 53 219 540 231 570 l17 38 70 -3 70 -3 19 -45z m669 25
c58 -34 76 -68 76 -142 0 -61 -2 -66 -36 -97 l-36 -33 31 -17 c48 -27 70 -63
74 -127 6 -77 -21 -122 -92 -155 -47 -22 -63 -24 -223 -24 l-173 0 0 311 0
311 173 -4 c150 -3 176 -6 206 -23z m2898 15 c55 -12 108 -55 129 -106 8 -18
14 -66 14 -106 -1 -94 -23 -147 -80 -184 -38 -25 -54 -29 -152 -34 l-110 -5
-2 -85 -1 -85 -61 -3 -61 -3 -6 182 c-4 100 -7 240 -7 311 l0 128 145 0 c79 0
166 -5 192 -10z m1527 -42 c13 -29 51 -120 84 -203 33 -82 76 -188 95 -235 58
-141 59 -130 -20 -130 l-69 0 -24 65 -24 65 -132 0 -132 0 -28 -65 -28 -65
-68 0 -68 0 26 58 c14 31 29 68 34 82 4 14 49 128 101 253 l93 227 68 0 68 0
24 -52z m-3954 -333 l0 -55 -135 0 -135 0 0 48 c0 27 3 52 7 55 3 4 64 7 135
7 l128 0 0 -55z m2920 0 l0 -55 -135 0 -135 0 0 55 0 55 135 0 135 0 0 -55z
m-4748 -799 c53 -88 73 -156 50 -170 -18 -10 -85 8 -101 28 -18 21 -40 187
-29 209 15 29 30 16 80 -67z m4826 -142 c15 -10 22 -25 22 -48 0 -43 20 -82
48 -98 22 -12 23 -16 17 -79 -6 -62 -5 -69 14 -81 12 -7 21 -18 21 -25 0 -19
-37 -35 -72 -31 -26 3 -33 10 -48 49 -9 26 -27 57 -39 70 -11 12 -21 31 -21
40 0 10 -6 22 -12 26 -43 27 -62 136 -31 173 21 24 69 26 101 4z m-3183 -54
c-3 -5 -11 -10 -16 -10 -6 0 -7 5 -4 10 3 6 11 10 16 10 6 0 7 -4 4 -10z m-65
-29 c0 -10 -7 -22 -16 -25 -24 -9 -54 -7 -54 4 0 6 9 10 19 10 10 0 21 7 25
15 8 21 26 19 26 -4z m355 -33 c33 6 44 -22 20 -48 -15 -17 -16 -20 -3 -20 8
0 25 9 38 20 12 11 27 17 31 14 16 -9 36 -68 33 -94 -1 -14 -3 -32 -3 -40 -1
-8 -13 -28 -27 -45 -40 -47 -51 -75 -59 -150 -4 -38 -12 -78 -16 -87 -5 -10
-11 -43 -14 -75 -6 -77 -13 -108 -38 -170 -20 -49 -49 -74 -65 -58 -17 17 -9
98 15 142 34 65 18 75 -45 29 -44 -32 -50 -41 -56 -83 -4 -27 -7 -68 -7 -93 0
-45 -16 -100 -28 -100 -4 0 -21 -12 -39 -27 -22 -19 -35 -40 -38 -63 -3 -19
-14 -44 -25 -55 -19 -19 -19 -19 -19 27 0 70 11 110 32 115 10 3 18 10 18 16
0 6 7 19 17 29 15 17 15 18 -1 18 -9 0 -19 -7 -22 -15 -4 -8 -14 -15 -24 -15
-9 0 -25 -9 -35 -20 -25 -27 -55 -116 -55 -160 0 -51 -28 -126 -72 -192 -21
-32 -38 -62 -38 -67 0 -6 -6 -14 -14 -18 -27 -16 -126 -112 -126 -123 0 -6
-17 -27 -37 -46 -28 -25 -35 -36 -25 -43 17 -10 6 -57 -18 -74 -9 -6 -20 -21
-24 -32 -6 -20 -74 -70 -83 -61 -12 11 10 44 40 61 36 19 63 67 51 87 -5 7 -8
22 -9 32 0 11 -5 21 -12 23 -14 5 -36 -34 -30 -52 3 -7 -5 -18 -18 -25 -12 -7
-34 -35 -49 -64 -24 -48 -48 -92 -68 -126 -5 -8 -16 -32 -26 -52 -9 -21 -26
-39 -38 -42 -13 -4 -28 -21 -37 -44 -8 -21 -23 -45 -32 -52 -25 -20 -76 -12
-102 16 -12 13 -27 24 -33 24 -7 0 -10 27 -9 81 2 65 6 83 21 94 15 9 17 19
12 41 -9 39 -14 45 -25 38 -6 -4 -6 -11 1 -19 13 -16 -8 -43 -48 -64 -15 -8
-21 -18 -18 -28 9 -21 -3 -36 -18 -24 -21 17 -84 -106 -81 -158 2 -36 -2 -43
-36 -70 -21 -17 -40 -31 -43 -31 -10 0 -6 39 4 45 6 3 10 19 10 34 0 16 11 48
24 72 13 24 27 65 30 91 6 37 14 52 36 68 30 22 46 53 35 70 -5 8 -11 8 -20 0
-9 -8 -15 -8 -20 0 -10 16 4 30 29 30 22 0 76 47 76 66 0 5 13 25 30 44 16 19
29 44 30 56 0 15 15 29 51 48 29 15 54 25 56 22 3 -2 -3 -16 -13 -30 -17 -27
-14 -43 6 -31 6 4 15 18 21 32 7 20 4 31 -17 59 -24 31 -25 37 -14 63 6 17 9
34 6 40 -7 11 8 42 42 84 12 16 22 34 22 41 0 8 9 25 20 39 25 31 25 37 1 37
-10 0 -39 -22 -65 -50 -45 -48 -66 -61 -66 -40 0 6 -8 10 -18 10 -20 0 -66
-43 -56 -53 3 -3 -9 -13 -28 -23 -18 -9 -47 -28 -65 -41 -40 -31 -67 -27 -71
10 -2 15 -8 27 -13 27 -11 0 0 -52 14 -61 15 -10 -3 -68 -24 -79 -25 -14 -24
-37 1 -45 16 -5 18 -10 10 -26 -13 -23 -30 -25 -30 -4 0 20 -13 19 -56 -4 -21
-11 -31 -22 -24 -26 6 -4 17 -2 24 4 10 8 17 7 27 -5 11 -13 10 -17 -2 -25 -8
-5 -25 -9 -38 -9 -14 0 -32 -6 -40 -14 -23 -20 -81 7 -109 51 -22 32 -22 35
-7 96 9 34 20 83 25 109 13 73 37 107 55 78 17 -27 26 -9 49 92 3 15 13 33 21
42 17 17 20 46 5 46 -6 0 -19 -13 -28 -30 -9 -16 -23 -30 -29 -30 -7 0 -13 2
-13 4 0 2 -3 11 -6 19 -3 10 5 18 25 25 17 6 31 18 31 26 0 9 6 16 14 16 20 0
38 26 41 57 2 36 39 119 57 130 25 15 97 108 112 145 20 48 20 55 -1 36 -19
-17 -93 -29 -93 -16 0 4 8 8 19 8 17 0 36 31 32 54 -1 5 5 6 13 3 8 -3 17 1
20 9 3 9 1 12 -4 9 -6 -3 -10 -1 -10 5 0 13 91 103 185 185 79 69 92 81 96 91
2 5 28 24 57 43 28 18 52 37 52 42 0 12 84 49 88 38 6 -16 23 -9 20 8 -4 26
57 55 89 42 13 -5 34 -9 46 -9 18 0 19 2 7 10 -23 15 0 43 45 55 29 7 40 6 43
-3 2 -7 12 -12 22 -12 10 0 22 -5 25 -10 4 -6 25 -10 48 -10 23 1 55 -2 71 -6
23 -6 32 -2 47 17 15 20 21 22 36 13 26 -16 28 -51 3 -64 -16 -9 -18 -15 -10
-30 17 -31 40 -25 40 11 0 26 3 30 18 24 38 -16 47 -11 44 22 -4 38 2 42 75
48 32 3 76 11 98 19 37 13 40 13 43 -3 2 -13 10 -17 27 -13z m3079 -33 c7 -19
-23 -55 -46 -55 -21 0 -22 10 -6 45 12 28 43 34 52 10z m-1289 -207 c19 -9 38
-8 80 2 42 10 61 11 80 2 25 -12 34 -37 15 -44 -7 -2 -7 -14 1 -36 10 -31 14
-33 43 -26 45 11 73 8 101 -10 24 -16 24 -29 1 -86 -8 -20 -83 -67 -121 -76
-30 -7 -94 -68 -95 -90 0 -23 -72 -67 -116 -72 -24 -2 -44 -8 -44 -11 0 -4 -9
-17 -20 -29 -26 -28 -60 -29 -60 -3 0 11 -6 21 -12 24 -10 3 -10 9 0 26 6 11
12 28 12 36 0 8 5 15 10 15 6 0 1 9 -10 20 -21 21 -27 79 -10 96 13 13 14 48
5 103 -6 32 -5 42 3 37 7 -4 12 -1 12 6 0 7 14 29 31 48 17 19 35 45 40 58 10
25 18 27 54 10z m-1365 -8 c0 -5 -4 -10 -10 -10 -5 0 -10 5 -10 10 0 6 5 10
10 10 6 0 10 -4 10 -10z m80 3 c0 -5 -7 -17 -15 -27 -8 -11 -15 -27 -15 -35 0
-27 -51 -89 -81 -100 -16 -5 -32 -18 -36 -28 -4 -10 -14 -26 -24 -36 -31 -34
-103 -193 -95 -212 8 -21 -14 -19 -29 2 -12 16 -15 14 -31 -20 -18 -38 -14
-58 9 -39 7 6 23 9 35 5 17 -4 22 -1 22 14 0 31 31 54 62 45 44 -12 15 -54
-54 -76 -10 -3 -20 -20 -24 -41 -3 -20 -8 -34 -11 -32 -2 3 -16 -6 -31 -20
-15 -14 -34 -22 -44 -20 -10 3 -18 4 -18 2 0 -2 -3 -11 -7 -21 -4 -12 -3 -15
5 -10 7 4 12 2 12 -3 0 -6 -4 -11 -10 -11 -5 0 -10 -7 -10 -15 0 -8 -3 -15 -8
-15 -4 0 -17 -22 -29 -49 -16 -33 -32 -52 -53 -61 -34 -14 -80 -70 -80 -98 0
-11 -15 -32 -32 -46 -18 -14 -37 -31 -43 -36 -5 -6 -24 -25 -42 -42 -25 -24
-30 -34 -23 -48 7 -13 6 -20 -5 -23 -7 -3 -15 -1 -17 4 -4 12 -38 1 -38 -13 0
-5 9 -12 21 -15 35 -10 9 -69 -62 -142 -14 -14 -38 -46 -54 -71 -15 -25 -41
-60 -56 -78 -16 -18 -29 -37 -29 -43 0 -6 -9 -22 -20 -36 -28 -35 -25 -53 6
-53 21 0 47 21 111 86 47 48 96 104 109 125 26 42 56 54 47 19 -3 -11 -9 -23
-14 -26 -5 -3 -9 -13 -9 -24 0 -15 -13 -43 -75 -161 -5 -11 -20 -19 -34 -19
-19 0 -22 -4 -18 -22 4 -12 1 -29 -6 -37 -9 -12 -7 -12 8 1 26 22 73 39 79 29
7 -10 -60 -74 -99 -95 -16 -9 -42 -26 -57 -37 -27 -22 -48 -19 -48 6 0 8 16
29 35 48 19 19 35 36 35 39 0 2 -16 4 -36 5 -30 1 -44 -7 -95 -55 -32 -31 -59
-62 -59 -69 0 -7 -16 -25 -35 -40 -19 -15 -35 -33 -35 -40 0 -6 -13 -21 -29
-33 -16 -11 -31 -30 -33 -43 -2 -12 -11 -23 -20 -25 -22 -4 -24 21 -4 37 8 7
28 41 44 75 23 49 37 66 66 80 31 15 37 22 35 44 -3 27 42 135 61 147 6 3 10
16 10 28 0 33 85 166 167 265 25 28 49 67 54 86 5 18 20 45 33 59 13 14 26 36
29 50 4 13 17 35 31 48 13 13 29 43 35 66 6 22 18 43 26 46 7 3 20 25 27 49
11 39 48 104 66 118 28 20 62 76 62 101 0 18 5 29 14 29 8 0 17 15 20 35 4 19
11 35 16 35 18 0 74 125 64 142 -6 10 14 38 27 38 5 0 10 -10 10 -22 1 -18 3
-16 8 7 8 38 103 234 114 235 5 0 5 -9 2 -20 -5 -16 -2 -20 15 -20 24 0 31 7
74 64 16 21 43 44 61 52 18 7 35 20 38 29 6 15 27 21 27 8z m-2165 -27 c18
-13 18 -15 -9 -60 -15 -25 -24 -46 -20 -46 3 0 1 -7 -7 -16 -10 -13 -10 -17 2
-24 12 -8 12 -12 -3 -26 -15 -15 -19 -14 -49 21 -24 27 -34 49 -36 79 -4 46 3
57 52 74 41 14 48 14 70 -2z m2015 -15 c0 -16 -48 -67 -55 -59 -10 9 27 68 42
68 7 0 13 -4 13 -9z m2774 -22 c-8 -14 -34 -10 -34 5 0 9 7 12 20 9 11 -3 17
-9 14 -14z m-34 -25 c0 -16 -35 -19 -45 -5 -6 11 26 32 37 25 5 -3 8 -12 8
-20z m-5243 -164 c13 -35 30 -71 37 -80 26 -29 56 -91 56 -115 0 -48 -46 -22
-90 50 -21 35 -62 193 -54 207 12 19 27 0 51 -62z m4906 41 c1 -9 -4 -27 -12
-39 -12 -20 -12 -28 -2 -44 12 -20 6 -78 -8 -78 -4 0 -15 -15 -24 -32 -10 -18
-28 -51 -42 -73 -27 -44 -30 -55 -15 -55 6 0 10 7 10 15 0 18 34 37 53 30 7
-3 21 -21 30 -39 12 -25 22 -33 42 -33 26 0 75 -37 75 -57 0 -6 -10 -16 -22
-21 -18 -9 -22 -18 -22 -70 -1 -50 2 -60 17 -63 15 -3 18 1 13 15 -4 13 1 26
14 38 18 17 20 17 26 1 5 -14 14 -16 47 -10 65 10 269 11 300 1 23 -8 27 -14
23 -31 -3 -13 3 -35 14 -54 25 -40 26 -78 3 -91 -13 -7 -22 -4 -35 11 -21 25
-21 24 -8 48 9 16 7 20 -12 24 -75 17 -82 13 -75 -44 5 -40 3 -50 -8 -50 -17
0 -19 -9 -6 -29 8 -12 12 -12 26 2 19 20 29 22 19 5 -5 -8 -2 -9 9 -5 22 8 32
-10 16 -29 -9 -11 -22 -14 -41 -10 -23 4 -28 2 -28 -13 0 -17 25 -55 56 -88 7
-7 15 -26 19 -43 4 -16 11 -32 16 -35 5 -4 9 -21 9 -38 0 -18 9 -45 20 -62 11
-16 20 -39 20 -51 0 -12 13 -39 28 -60 16 -22 35 -63 42 -92 6 -29 20 -69 30
-90 10 -20 23 -57 30 -82 6 -25 20 -74 30 -110 44 -159 57 -257 63 -460 5
-172 -15 -372 -36 -351 -6 6 -5 28 3 59 10 45 9 54 -9 91 -26 50 -29 146 -5
179 13 19 14 28 4 52 -8 20 -9 34 -1 48 7 14 6 24 -5 40 -11 16 -16 57 -18
153 -4 124 -5 134 -35 190 -17 33 -32 67 -34 77 -2 9 -14 42 -29 72 -14 30
-32 73 -39 95 -7 22 -19 45 -27 52 -7 6 -16 31 -18 54 -6 47 -17 73 -69 164
-19 33 -34 67 -33 75 1 14 -19 67 -44 117 -9 19 -99 81 -169 118 -10 5 -19 14
-19 20 -1 17 -48 65 -64 65 -18 0 -42 -73 -26 -78 6 -2 10 -12 10 -23 0 -21
-29 -26 -48 -7 -8 8 -15 8 -26 -1 -23 -19 -39 -3 -33 33 9 59 -16 78 -34 26
-14 -38 -30 -39 -24 -2 6 34 -11 57 -49 64 -25 5 -30 2 -42 -29 -13 -31 -38
-52 -49 -41 -11 11 19 132 36 146 28 24 25 76 -4 89 -26 12 -57 0 -57 -21 0
-8 14 -19 30 -26 33 -14 40 -30 12 -30 -26 0 -34 -11 -20 -27 8 -10 8 -17 0
-25 -8 -8 -14 -5 -21 14 -8 23 -16 25 -83 30 -40 3 -95 3 -123 -1 -48 -6 -50
-7 -49 -36 1 -23 -5 -34 -22 -43 -13 -7 -35 -17 -48 -24 -12 -7 -32 -28 -42
-47 -10 -19 -28 -39 -39 -45 -11 -6 -22 -12 -24 -13 -2 -2 1 -9 8 -17 14 -17
43 -123 40 -151 -1 -11 4 -33 11 -50 18 -44 29 -95 23 -111 -8 -23 -23 -16
-23 10 0 15 -7 27 -18 31 -11 3 -24 22 -31 45 -6 22 -23 51 -37 66 -15 14 -23
28 -19 32 4 4 14 -3 22 -15 9 -13 22 -23 29 -23 19 0 18 16 -1 24 -9 3 -21 19
-26 35 -6 16 -21 37 -35 46 -16 10 -26 29 -30 55 -6 38 -9 40 -41 40 -42 0
-79 -24 -100 -64 -8 -17 -30 -49 -47 -71 -18 -22 -48 -66 -67 -97 -25 -44 -42
-61 -67 -69 -19 -6 -64 -42 -103 -81 l-69 -71 0 43 c0 72 20 117 74 169 92 89
176 161 186 161 5 0 10 6 10 14 0 8 11 23 25 34 14 11 25 22 25 25 0 9 150
157 159 157 6 0 33 20 61 45 28 25 60 45 71 45 11 0 22 7 25 15 4 8 10 15 14
15 11 0 109 66 138 93 12 11 22 28 22 38 0 10 10 25 21 33 12 8 23 27 25 42 2
25 21 71 34 84 3 3 14 22 24 43 31 61 112 117 176 123 19 2 53 7 75 12 53 10
93 4 98 -17z m-2183 -121 c0 -5 -4 -10 -10 -10 -5 0 -10 5 -10 10 0 6 5 10 10
10 6 0 10 -4 10 -10z m1505 0 c4 -6 4 -24 0 -39 -7 -34 -44 -51 -106 -51 -51
0 -50 16 3 62 42 37 90 50 103 28z m-1695 -30 c0 -14 -31 -41 -41 -35 -13 9
-11 21 7 39 15 16 34 13 34 -4z m-1763 -42 c-3 -7 -5 -2 -5 12 0 14 2 19 5 13
2 -7 2 -19 0 -25z m5028 -138 c-35 -39 -50 -9 -17 35 16 23 17 23 26 4 7 -14
4 -25 -9 -39z m-3311 -32 c-14 -22 -79 -88 -86 -88 -5 0 -8 13 -8 30 0 25 6
32 43 49 50 23 61 25 51 9z m324 -12 c9 -10 21 -82 16 -99 -4 -11 3 -25 18
-37 18 -15 21 -21 11 -31 -10 -10 -13 -10 -13 -1 0 7 -9 12 -19 12 -11 0 -23
5 -26 10 -10 16 -38 12 -31 -5 4 -10 -5 -20 -30 -30 -45 -18 -59 -12 -60 28
-1 17 1 26 3 20 8 -24 23 -13 23 17 0 19 7 33 20 40 27 15 43 3 36 -26 -9 -36
2 -29 19 12 23 55 19 81 -12 93 -27 11 -27 11 6 6 19 -3 36 -7 39 -9z m157
-46 c7 -22 -2 -60 -14 -60 -6 0 -31 58 -31 73 0 17 39 5 45 -13z m-475 -25 c0
-18 -11 -32 -39 -51 -41 -26 -65 -26 -54 2 3 9 13 14 24 11 10 -3 18 -2 17 2
-2 17 3 31 18 45 22 23 34 20 34 -9z m-400 -25 c0 -5 -5 -10 -11 -10 -5 0 -7
5 -4 10 3 6 8 10 11 10 2 0 4 -4 4 -10z m-43 -22 c-3 -8 -6 -5 -6 6 -1 11 2
17 5 13 3 -3 4 -12 1 -19z m1083 2 c0 -5 -4 -10 -10 -10 -5 0 -10 5 -10 10 0
6 5 10 10 10 6 0 10 -4 10 -10z m-800 -64 c0 -8 -5 -18 -11 -22 -14 -8 -33 11
-25 25 10 16 36 13 36 -3z m2160 -5 c0 -6 -4 -12 -9 -15 -13 -8 -42 4 -35 15
7 12 44 12 44 0z m-1725 -12 c11 -16 1 -19 -13 -3 -7 8 -8 14 -3 14 5 0 13 -5
16 -11z m275 -35 c0 -8 -4 -12 -10 -9 -5 3 -10 10 -10 16 0 5 5 9 10 9 6 0 10
-7 10 -16z m-1090 -84 c-22 -47 -40 -64 -40 -38 0 6 10 33 22 60 14 32 25 45
32 38 6 -6 2 -26 -14 -60z m680 10 c0 -10 4 -20 9 -22 6 -2 5 -21 -2 -47 -10
-35 -9 -45 1 -48 21 -8 14 -77 -13 -117 -14 -20 -25 -48 -25 -61 0 -13 -6 -44
-14 -67 -7 -24 -19 -63 -26 -88 -7 -25 -16 -58 -21 -74 -5 -16 -9 -42 -9 -57
0 -21 -14 -43 -55 -84 -30 -30 -55 -63 -55 -73 0 -11 -9 -30 -19 -44 -11 -13
-23 -37 -27 -53 -6 -23 -8 -25 -16 -11 -5 9 -16 16 -23 16 -10 0 -15 11 -15
34 0 37 18 96 29 96 4 0 7 27 7 59 -1 70 -12 67 -52 -12 -19 -37 -22 -52 -14
-62 9 -10 5 -25 -14 -62 -33 -60 -32 -63 3 -63 17 0 33 -5 36 -11 11 -17 -4
-24 -25 -11 -16 10 -20 10 -20 -1 0 -17 -49 -63 -76 -71 -14 -4 -29 -25 -43
-57 -13 -31 -28 -53 -41 -56 -12 -3 -19 -12 -17 -26 1 -16 -6 -23 -31 -30 -39
-12 -45 -8 -36 28 5 20 11 25 26 22 14 -4 18 -1 17 11 -4 23 10 62 21 62 10 0
60 51 60 61 0 10 -44 -2 -51 -14 -4 -6 -15 -6 -25 -2 -17 8 -17 9 4 12 27 5
29 33 2 33 -23 0 -24 4 -10 30 7 13 7 21 0 25 -5 3 -10 22 -10 41 0 25 -4 34
-16 34 -12 0 -15 -6 -10 -24 6 -26 -8 -76 -21 -76 -5 0 -15 23 -24 51 l-16 50
29 40 c16 22 33 37 38 34 4 -3 15 2 23 10 9 8 20 15 26 15 6 0 11 2 11 5 0 8
-24 48 -37 63 -10 11 -10 19 2 41 10 21 11 31 3 39 -9 9 -4 21 22 47 19 19 40
35 47 35 17 0 16 -6 -3 -35 -9 -14 -13 -32 -10 -41 6 -15 8 -15 24 0 14 12 21
13 30 4 9 -9 13 -7 18 7 5 11 3 20 -4 23 -26 8 -10 50 40 105 28 32 61 76 72
99 12 23 28 45 36 49 24 12 54 23 67 24 19 1 53 37 53 57 0 10 6 18 14 18 24
0 88 79 81 100 -9 29 29 64 55 50 11 -6 20 -19 20 -30z m-160 2 c0 -21 -47
-92 -60 -92 -6 0 -10 -11 -10 -24 0 -24 -25 -54 -37 -43 -3 4 -1 19 5 34 6 15
13 40 16 55 6 26 59 88 77 88 5 0 9 -8 9 -18z m528 -30 c3 -19 -1 -23 -15 -20
-10 2 -19 14 -21 26 -3 19 1 23 15 20 10 -2 19 -14 21 -26z m2047 18 c3 -5 -3
-10 -14 -10 -12 0 -21 5 -21 10 0 6 6 10 14 10 8 0 18 -4 21 -10z m-2770 -20
c3 -5 -6 -21 -22 -34 -23 -20 -29 -22 -36 -10 -6 10 -1 21 15 34 26 22 34 24
43 10z m-1255 -8 c0 -15 -24 -32 -46 -32 -37 0 -38 18 -2 29 43 12 48 12 48 3z
m1718 -30 c4 -24 -7 -29 -26 -10 -18 18 -15 40 6 36 9 -2 18 -13 20 -26z
m-838 -12 c0 -5 -4 -10 -10 -10 -5 0 -10 -7 -10 -15 0 -8 -4 -15 -10 -15 -13
0 -13 6 2 30 14 21 28 26 28 10z m2207 4 c-3 -3 -12 -4 -19 -1 -8 3 -5 6 6 6
11 1 17 -2 13 -5z m-828 -33 c12 -16 21 -33 21 -38 0 -15 -39 -86 -52 -94 -10
-7 -10 -11 0 -21 14 -14 17 -118 3 -118 -5 0 -13 -15 -16 -32 -4 -18 -12 -39
-17 -46 -6 -7 -8 -30 -4 -53 4 -23 3 -46 -2 -53 -5 -6 -14 -38 -21 -71 -8 -33
-19 -73 -26 -90 -8 -16 -12 -33 -9 -37 3 -4 -9 -14 -25 -23 -32 -16 -33 -17
-31 -180 0 -34 -21 -115 -31 -115 -4 0 -20 -25 -35 -56 -28 -58 -64 -104 -83
-104 -6 0 -11 14 -11 30 0 17 -2 30 -5 30 -11 0 -40 -36 -58 -70 -10 -19 -31
-44 -47 -55 -17 -11 -30 -27 -30 -35 -1 -8 -9 -33 -20 -55 -11 -22 -19 -45
-20 -51 0 -6 -8 -19 -19 -28 -18 -16 -18 -15 -11 22 3 21 10 44 14 51 5 7 5
27 2 44 -5 26 -13 34 -41 43 -36 11 -44 7 -24 -13 17 -17 7 -59 -13 -55 -10 1
-25 -9 -34 -23 -17 -26 -17 -27 12 -50 16 -14 32 -24 36 -25 7 0 -2 -42 -11
-50 -3 -3 -11 -14 -17 -25 -7 -12 -20 -19 -30 -17 -11 2 -29 4 -40 4 -13 0
-27 11 -35 25 -11 21 -10 36 8 106 20 79 21 107 3 77 -5 -8 -12 -11 -16 -7 -4
4 5 33 19 64 23 51 24 60 11 74 -15 17 -20 69 -5 69 14 0 29 -23 33 -50 2 -16
9 -25 21 -25 18 0 28 19 72 130 4 11 9 37 9 57 2 41 23 64 66 74 16 3 34 21
48 44 28 49 28 52 -3 44 -34 -8 -33 8 6 84 17 34 27 67 23 73 -9 15 14 29 47
29 29 0 55 23 44 40 -3 5 -17 10 -30 10 -20 0 -24 5 -23 25 2 18 8 25 23 25
12 0 32 12 46 26 21 23 22 26 7 35 -15 8 -15 13 3 60 18 48 18 69 -1 69 -4 0
-11 -11 -14 -25 -14 -54 -137 -191 -168 -186 -12 1 -20 -9 -28 -40 -9 -31 -18
-44 -39 -52 -17 -6 -34 -24 -43 -46 l-15 -35 -8 33 c-5 23 -3 37 8 49 8 9 22
32 31 50 9 17 23 32 31 32 10 0 15 10 15 30 0 21 9 39 27 56 26 24 35 38 68
101 9 18 23 37 31 44 8 6 14 24 14 40 0 27 18 53 42 61 10 4 10 8 1 20 -14 16
-8 28 14 28 7 0 13 -11 13 -25 0 -14 -4 -25 -10 -25 -14 0 -13 -53 2 -68 9 -9
17 -7 35 10 13 12 23 16 23 10 0 -7 8 -12 18 -11 10 0 12 3 5 6 -19 7 -16 53
5 60 9 4 25 15 35 24 16 15 17 20 5 39 -12 20 -10 24 22 51 41 35 44 35 93 9
41 -22 61 -19 53 8 -19 71 -18 73 26 81 4 0 16 -12 27 -28z m-1132 -28 c-3 -3
-11 -2 -17 2 -9 6 -9 10 1 16 14 8 27 -7 16 -18z m723 5 c0 -13 -9 -36 -20
-53 -22 -33 -25 -20 -9 38 11 41 29 50 29 15z m100 3 c0 -6 -4 -13 -10 -16 -5
-3 -10 1 -10 9 0 9 5 16 10 16 6 0 10 -4 10 -9z m-2500 -21 c0 -5 -7 -10 -16
-10 -8 0 -12 5 -9 10 3 6 10 10 16 10 5 0 9 -4 9 -10z m1378 -22 c-3 -35 -28
-52 -28 -20 0 28 10 52 22 52 5 0 8 -14 6 -32z m3120 14 c3 -9 -2 -13 -14 -10
-9 1 -19 9 -22 16 -3 9 2 13 14 10 9 -1 19 -9 22 -16z m-2858 -22 c0 -10 -9
-24 -20 -30 -12 -6 -36 -27 -54 -47 -32 -36 -66 -41 -66 -11 0 26 95 105 128
107 6 1 12 -8 12 -19z m2910 -1 c0 -6 -4 -7 -10 -4 -5 3 -10 11 -10 16 0 6 5
7 10 4 6 -3 10 -11 10 -16z m-2050 -10 c0 -5 -7 -9 -15 -9 -15 0 -20 12 -9 23
8 8 24 -1 24 -14z m1852 -7 c14 -6 29 -16 33 -21 3 -6 14 -11 25 -11 23 0 33
-25 15 -40 -11 -9 -19 -6 -35 10 -19 19 -29 21 -73 16 -29 -4 -83 -10 -122
-14 -38 -4 -84 -15 -100 -24 -17 -9 -49 -20 -70 -23 -22 -4 -48 -12 -59 -17
-11 -6 -22 -6 -28 0 -13 13 44 59 112 90 50 24 70 29 170 50 37 8 87 2 132
-16z m261 14 c7 -17 -1 -26 -24 -26 -12 0 -16 6 -12 20 6 23 28 27 36 6z
m-2358 -49 c7 -28 -11 -114 -31 -144 -8 -13 -13 -42 -13 -67 2 -42 -15 -76
-38 -76 -4 0 -14 -10 -21 -21 -11 -16 -16 -19 -25 -10 -9 9 -6 17 13 31 21 16
23 22 12 37 -24 35 -25 46 -7 59 12 9 22 10 30 4 9 -7 11 1 11 33 -1 24 3 41
9 40 6 -1 11 20 11 52 0 70 36 116 49 62z m315 -12 c0 -8 -4 -15 -10 -15 -5 0
-10 7 -10 15 0 8 5 15 10 15 6 0 10 -7 10 -15z m-1390 -27 c0 -6 -24 -35 -53
-65 -54 -53 -77 -65 -77 -39 0 20 38 64 79 91 41 27 51 30 51 13z m140 -6 c0
-5 -9 -17 -20 -27 -22 -20 -26 -14 -10 16 11 19 30 26 30 11z m1010 -61 c0
-46 -9 -57 -26 -33 -17 21 -18 54 -2 70 18 18 28 4 28 -37z m-840 14 c0 -8 -7
-15 -15 -15 -8 0 -15 7 -15 15 0 8 7 15 15 15 8 0 15 -7 15 -15z m3025 -4 c0
-23 -23 -24 -35 -1 -10 19 -9 21 12 18 13 -2 23 -9 23 -17z m-4585 -11 c0 -5
-2 -10 -4 -10 -3 0 -8 5 -11 10 -3 6 -1 10 4 10 6 0 11 -4 11 -10z m252 -32
c-6 -6 -15 -8 -19 -4 -4 4 -1 11 7 16 19 12 27 3 12 -12z m2728 -18 c0 -31
-16 -41 -26 -15 -8 19 2 45 16 45 5 0 10 -13 10 -30z m854 -12 c11 -32 0 -78
-19 -78 -12 0 -15 13 -15 56 0 60 17 71 34 22z m1051 2 c10 -32 -6 -46 -21
-19 -17 31 -17 39 0 39 8 0 17 -9 21 -20z m-5611 -2 c-18 -31 -67 -88 -75 -88
-17 0 -9 47 12 74 21 27 78 39 63 14z m2396 -27 c0 -5 -7 -14 -15 -21 -8 -7
-15 -19 -15 -26 0 -8 -7 -14 -15 -14 -8 0 -15 4 -15 9 0 5 7 14 15 21 8 7 15
19 15 26 0 8 7 14 15 14 8 0 15 -4 15 -9z m2650 4 c0 -13 -125 -64 -143 -60
-12 3 -53 1 -92 -4 -38 -6 -71 -8 -73 -6 -6 6 66 36 133 55 54 15 175 25 175
15z m70 -20 c7 -8 16 -13 20 -10 13 8 22 -14 16 -38 -5 -23 -77 -54 -97 -42
-16 10 -10 41 11 60 11 10 20 24 20 32 0 17 15 17 30 -2z m-205 -65 c3 -5 2
-10 -4 -10 -5 0 -18 -3 -28 -7 -16 -6 -16 -5 -4 10 15 19 27 22 36 7z m295
-34 c0 -3 -4 -8 -10 -11 -5 -3 -10 -1 -10 4 0 6 5 11 10 11 6 0 10 -2 10 -4z
m-3323 -28 c-3 -8 -6 -5 -6 6 -1 11 2 17 5 13 3 -3 4 -12 1 -19z m1763 13 c0
-17 -12 -41 -21 -41 -5 0 -9 11 -9 25 0 16 6 25 15 25 8 0 15 -4 15 -9z m750
-6 c7 -8 16 -13 20 -10 13 8 40 -24 40 -46 0 -36 -31 -35 -61 2 -28 33 -38 69
-20 69 5 0 14 -7 21 -15z m996 -46 c16 -17 16 -22 4 -29 -20 -13 -57 -13 -65
0 -8 13 13 50 29 50 7 0 21 -9 32 -21z m-4564 -34 c14 -32 10 -36 -35 -28 -35
5 -49 27 -30 46 16 17 54 6 65 -18z m2790 -34 c-5 -3 -12 -19 -16 -34 -4 -16
-12 -27 -18 -25 -20 7 -19 23 1 44 10 11 22 31 27 45 l8 24 4 -24 c2 -13 0
-26 -6 -30z m1866 37 c-7 -19 -38 -22 -38 -4 0 10 9 16 21 16 12 0 19 -5 17
-12z m-5990 -18 c23 -10 42 -24 42 -29 0 -6 23 -36 50 -66 28 -30 50 -59 50
-64 0 -36 -130 -57 -148 -25 -7 13 -18 15 -46 10 -20 -4 -36 -11 -36 -16 0 -5
-12 -13 -26 -16 -22 -6 -32 0 -66 37 -33 37 -38 49 -34 77 6 43 20 58 65 78
20 9 43 20 51 24 24 14 52 11 98 -10z m5010 -20 c3 -21 2 -22 -12 -11 -19 16
-21 44 -3 39 6 -3 14 -15 15 -28z m682 -37 c0 -20 -24 -11 -28 10 -2 12 1 15
12 11 9 -3 16 -13 16 -21z m-992 5 c7 -7 12 -15 12 -19 0 -12 -53 6 -58 19 -5
16 30 16 46 0z m295 -13 c34 -32 34 -42 1 -57 -31 -14 -44 0 -44 50 0 39 7 40
43 7z m537 16 c0 -16 -71 -63 -103 -68 -46 -7 -55 -20 -23 -33 37 -14 51 -13
66 5 17 21 37 19 43 -5 7 -26 27 -26 34 1 5 16 12 20 32 16 14 -3 34 0 45 5
11 6 34 12 53 14 40 4 43 -12 12 -75 -21 -45 -50 -53 -58 -16 -7 38 -41 47
-41 11 0 -16 -7 -26 -22 -30 -13 -3 -24 -1 -26 4 -2 5 -12 20 -21 31 -17 21
-21 21 -62 10 -24 -7 -51 -11 -59 -10 -8 1 -43 1 -77 2 -64 0 -69 2 -54 26 6
10 19 12 44 7 32 -6 47 4 47 30 0 9 -86 -10 -105 -22 -16 -10 -30 -11 -59 -3
-32 9 -37 14 -34 37 3 30 37 45 132 61 69 12 236 13 236 2z m579 -11 c24 -11
50 -20 58 -20 20 0 93 -41 93 -52 0 -17 -30 -19 -96 -6 -37 7 -69 19 -72 26
-2 6 4 12 13 12 9 0 13 5 10 10 -3 6 -19 10 -34 10 -26 0 -51 16 -51 32 0 14
33 8 79 -12z m-3989 -63 c0 -24 -19 -42 -31 -30 -8 8 -8 16 1 32 11 22 30 20
30 -2z m1271 13 c24 -13 25 -27 2 -27 -23 0 -45 16 -37 28 7 11 11 11 35 -1z
m1389 -46 c0 -40 -49 -12 -50 29 0 16 2 16 25 1 14 -9 25 -22 25 -30z m-1310
26 c0 -20 -29 -80 -38 -80 -6 0 -13 -10 -16 -22 -4 -13 -25 -36 -48 -53 -23
-17 -46 -44 -52 -62 -13 -39 -21 -47 -36 -38 -7 5 -3 18 14 40 15 19 26 42 26
53 0 11 17 35 38 54 21 19 42 41 45 49 26 54 67 90 67 59z m620 -20 c0 -5 -5
-21 -10 -36 -16 -40 -34 -17 -19 24 10 28 29 36 29 12z m-2264 -17 c-10 -10
-19 5 -10 18 6 11 8 11 12 0 2 -7 1 -15 -2 -18z m1554 5 c-1 -18 -28 -53 -36
-45 -3 3 -2 12 2 19 5 7 9 16 10 21 3 15 4 17 14 17 6 0 10 -6 10 -12z m-1630
-19 c0 -6 -4 -7 -10 -4 -5 3 -10 11 -10 16 0 6 5 7 10 4 6 -3 10 -11 10 -16z
m-47 -28 c-21 -35 -73 -42 -73 -10 0 21 29 37 67 38 21 1 22 0 6 -28z m3135 1
c4 -24 -7 -29 -26 -10 -18 18 -15 40 6 36 9 -2 18 -13 20 -26z m1083 8 c22 0
29 -5 29 -20 0 -11 -3 -20 -7 -21 -80 -6 -87 -5 -105 13 -25 25 -13 42 24 34
17 -3 43 -6 59 -6z m79 -44 c0 -8 -7 -21 -15 -30 -8 -8 -15 -19 -15 -25 0 -6
-4 -11 -10 -11 -11 0 -14 63 -3 73 12 13 43 7 43 -7z m-3370 -11 c0 -8 -4 -15
-10 -15 -5 0 -7 7 -4 15 4 8 8 15 10 15 2 0 4 -7 4 -15z m244 -3 c-6 -4 -23
-29 -37 -57 -28 -54 -35 -55 -13 0 8 18 12 36 9 39 -10 10 9 26 30 26 13 0 17
-3 11 -8z m658 -48 c-12 -8 -22 -24 -22 -34 0 -10 -5 -22 -11 -26 -7 -4 -7
-10 -1 -16 15 -15 2 -56 -24 -73 -13 -8 -24 -12 -25 -8 -6 38 32 143 51 143 5
0 10 6 10 13 0 21 22 39 34 27 7 -7 3 -15 -12 -26z m1402 4 c13 -21 -8 -70
-26 -63 -7 3 -19 17 -25 32 -11 22 -10 28 5 39 20 16 32 14 46 -8z m1195 -7
c16 -10 6 -31 -14 -31 -14 0 -27 24 -18 34 8 8 15 7 32 -3z m-4648 -38 c-11
-21 -25 -56 -32 -78 -7 -22 -14 -34 -16 -28 -3 7 1 29 7 48 9 27 9 39 0 49 -8
11 -6 18 12 30 40 28 52 20 29 -21z m4298 22 c2 -3 -2 -11 -9 -20 -14 -17 -95
-21 -105 -5 -4 6 -4 18 -1 27 5 13 16 14 58 9 29 -4 54 -9 57 -11z m-2709 -15
c0 -5 -5 -10 -11 -10 -5 0 -7 5 -4 10 3 6 8 10 11 10 2 0 4 -4 4 -10z m2145
-36 c16 -10 34 -14 53 -9 39 8 64 -19 37 -39 -16 -11 -21 -11 -33 1 -8 8 -22
11 -31 7 -17 -7 -18 -7 -73 2 -21 3 -38 9 -38 13 0 5 45 36 58 40 1 1 14 -6
27 -15z m692 -23 c54 -15 86 -41 78 -64 -9 -21 -23 -21 -77 0 -56 21 -98 51
-98 68 0 16 28 14 97 -4z m-2688 -58 c-12 -21 -28 -45 -36 -54 -7 -8 -13 -20
-13 -25 0 -13 -40 -47 -47 -40 -3 3 4 20 15 38 11 18 20 37 20 42 -1 12 61 76
74 76 5 0 0 -17 -13 -37z m2133 15 c-4 -18 -2 -20 14 -13 10 4 32 10 47 13 23
3 29 0 34 -17 4 -15 13 -21 32 -21 14 0 40 -12 56 -26 l30 -25 -50 6 c-27 4
-59 12 -70 18 -11 6 -36 10 -55 9 -47 -3 -81 24 -69 56 11 29 39 30 31 0z
m678 -24 c0 -8 -4 -12 -10 -9 -5 3 -10 10 -10 16 0 5 5 9 10 9 6 0 10 -7 10
-16z m-3430 -4 c0 -5 -5 -10 -11 -10 -5 0 -7 5 -4 10 3 6 8 10 11 10 2 0 4 -4
4 -10z m3480 0 c0 -5 -5 -10 -11 -10 -5 0 -7 5 -4 10 3 6 8 10 11 10 2 0 4 -4
4 -10z m-4650 -11 c0 -6 -5 -20 -11 -32 l-12 -21 -9 23 c-4 12 -6 27 -2 32 7
13 34 11 34 -2z m1378 -15 c2 -1 -9 -1 -23 -1 -25 0 -31 7 -18 20 3 4 13 1 22
-5 9 -7 17 -13 19 -14z m2030 -63 c5 -49 -22 -51 -69 -5 -21 21 -39 46 -39 55
0 15 4 15 53 -1 47 -15 52 -20 55 -49z m1189 43 c-7 -7 -37 7 -37 17 0 6 9 5
21 -1 11 -7 19 -14 16 -16z m-4161 -62 c-12 -11 -18 7 -10 30 l8 23 4 -23 c2
-13 1 -26 -2 -30z m269 38 c-3 -5 -11 -10 -16 -10 -6 0 -7 5 -4 10 3 6 11 10
16 10 6 0 7 -4 4 -10z m3465 -39 c0 -18 -20 -61 -28 -61 -4 0 -17 7 -28 15
-19 14 -18 15 6 35 27 21 50 26 50 11z m-272 -27 c-3 -23 -10 -29 -53 -40 -27
-7 -63 -20 -80 -28 -39 -21 -85 -21 -85 -1 0 10 10 15 33 15 20 0 39 8 50 20
9 11 31 23 47 27 17 3 30 12 30 19 0 9 11 14 31 14 27 0 30 -3 27 -26z m-3938
-3 c0 -6 -4 -13 -10 -16 -5 -3 -10 1 -10 9 0 9 5 16 10 16 6 0 10 -4 10 -9z
m2611 -30 c-12 -12 -21 -18 -21 -14 0 10 33 44 37 39 3 -2 -5 -14 -16 -25z
m779 14 c17 -20 4 -34 -38 -39 -42 -5 -47 3 -20 31 25 27 41 29 58 8z m665
-15 c68 0 84 -20 33 -41 l-33 -13 53 -4 c28 -2 52 -7 52 -11 0 -28 -123 -90
-136 -70 -3 6 -15 9 -27 7 -19 -3 -22 1 -20 27 1 17 12 37 25 47 23 18 23 18
-19 12 -24 -4 -43 -3 -43 2 1 14 75 64 78 53 2 -5 19 -9 37 -9z m-1665 6 c0
-3 -4 -8 -10 -11 -5 -3 -10 -1 -10 4 0 6 5 11 10 11 6 0 10 -2 10 -4z m-910
-21 c0 -9 -6 -12 -15 -9 -9 4 -24 -4 -37 -21 -17 -22 -23 -24 -30 -12 -11 20
-1 45 20 50 37 10 62 7 62 -8z m3550 5 c0 -5 -5 -10 -11 -10 -5 0 -7 5 -4 10
3 6 8 10 11 10 2 0 4 -4 4 -10z m-3370 -33 c0 -23 -8 -41 -24 -56 -36 -34 -51
-17 -21 23 14 18 25 40 25 49 0 10 5 17 10 17 6 0 10 -15 10 -33z m-960 13 c0
-5 -4 -10 -10 -10 -5 0 -10 5 -10 10 0 6 5 10 10 10 6 0 10 -4 10 -10z m2730
1 c0 -5 10 -11 21 -14 20 -5 21 -11 16 -58 -8 -68 -19 -78 -50 -45 -13 14 -31
26 -38 26 -27 1 -49 27 -49 59 0 37 17 41 26 6 8 -33 20 -32 33 5 9 27 41 43
41 21z m1010 -1 c0 -5 -12 -10 -26 -10 -14 0 -23 4 -19 10 3 6 15 10 26 10 10
0 19 -4 19 -10z m-530 -51 c0 -27 -2 -29 -20 -19 -11 6 -24 9 -29 6 -4 -3 -17
1 -27 9 -15 11 -16 16 -7 26 10 10 14 9 19 -4 8 -23 21 -21 27 3 8 31 37 14
37 -21z m1584 -8 c3 -5 0 -11 -8 -14 -15 -6 -26 1 -26 15 0 11 27 10 34 -1z
m-779 -32 c8 -23 1 -34 -14 -24 -13 8 -15 45 -2 45 5 0 13 -9 16 -21z m132
-15 c-3 -3 -12 -4 -19 -1 -8 3 -5 6 6 6 11 1 17 -2 13 -5z m-469 -12 c21 -3
13 -20 -10 -25 -22 -3 -21 -4 6 -16 40 -16 20 -36 -28 -27 -39 7 -79 52 -59
64 10 6 55 8 91 4z m410 -27 c-3 -3 -9 2 -12 12 -6 14 -5 15 5 6 7 -7 10 -15
7 -18z m-3234 7 c7 -12 -24 -53 -35 -47 -5 4 -9 17 -9 31 0 17 5 24 19 24 11
0 22 -4 25 -8z m2944 -8 c15 -3 34 -12 42 -19 8 -7 29 -15 45 -17 17 -1 30 -7
30 -13 2 -34 19 -52 64 -68 59 -21 61 -21 61 -2 0 8 3 15 7 15 10 0 43 -32 43
-42 0 -6 10 -18 23 -28 30 -25 22 -29 -42 -20 -36 4 -59 13 -70 27 -15 19 -48
28 -141 37 -14 2 -29 4 -34 4 -4 1 -6 13 -4 27 3 14 2 25 -2 25 -4 0 -11 10
-15 23 l-8 22 -4 -22 c-5 -28 -11 -28 -44 0 -45 40 -46 71 -3 62 13 -3 36 -8
52 -11z m1124 -15 c-9 -11 -18 -15 -20 -9 -7 19 7 40 22 34 12 -5 12 -8 -2
-25z m-4343 18 c-2 -1 -12 -9 -21 -16 -15 -12 -18 -11 -18 3 0 10 8 16 22 16
12 0 19 -1 17 -3z m3591 -17 c47 -24 70 -25 70 -5 0 17 25 20 35 5 3 -5 3 -16
-2 -22 -4 -7 -6 -21 -5 -30 4 -20 -16 -23 -65 -9 -39 11 -105 60 -97 72 8 13
21 11 64 -11z m-439 -56 c12 -14 11 -16 -5 -13 -11 2 -21 10 -24 17 -5 17 13
15 29 -4z m229 6 c0 -5 -4 -10 -9 -10 -6 0 -13 5 -16 10 -3 6 1 10 9 10 9 0
16 -4 16 -10z m-2840 -36 c0 -18 -14 -18 -30 1 -16 19 -3 40 16 24 8 -6 14
-18 14 -25z m2155 26 c7 -12 -2 -12 -30 0 -19 8 -19 9 2 9 12 1 25 -3 28 -9z
m-131 -28 c41 2 50 0 47 -12 -5 -24 -9 -44 -10 -52 -1 -4 -8 -5 -16 -2 -10 4
-12 10 -6 18 7 8 -12 12 -71 14 -62 1 -91 8 -131 28 l-52 26 50 -6 c28 -3 63
-2 80 2 21 6 34 4 44 -5 9 -9 31 -13 65 -11z m-489 -8 c8 -4 22 -18 29 -33 14
-26 13 -26 -21 -28 -23 -1 -42 5 -56 18 -18 16 -18 19 -4 19 9 0 17 7 17 15 0
16 9 19 35 9z m690 -44 c3 -5 26 -10 49 -10 25 0 49 -6 55 -14 29 -35 -112
-47 -182 -15 -37 17 -29 33 19 40 21 3 42 7 46 8 4 0 10 -3 13 -9z m-2245 -29
c0 -11 -4 -23 -10 -26 -6 -4 -10 5 -10 19 0 14 5 26 10 26 6 0 10 -9 10 -19z
m2558 -24 c-11 -9 -14 -18 -8 -28 7 -10 1 -18 -23 -31 -49 -26 -74 -23 -80 10
-7 34 23 65 34 35 5 -16 7 -15 13 5 6 18 15 22 44 22 32 -1 35 -2 20 -13z
m-2468 -12 c0 -22 -27 -30 -56 -16 -33 15 -22 31 22 31 24 0 34 -5 34 -15z
m2604 -1 c9 -3 16 -10 16 -16 0 -14 -43 -5 -48 10 -4 13 7 15 32 6z m-1937
-41 c-3 -3 -11 -2 -17 2 -8 5 -7 11 2 22 12 15 13 14 16 -1 2 -10 1 -20 -1
-23z m1878 27 c7 -11 -39 -25 -55 -15 -5 3 -8 11 -5 16 8 12 52 12 60 -1z
m448 -37 c-7 -2 -21 -2 -30 0 -10 3 -4 5 12 5 17 0 24 -2 18 -5z m-3068 -22
c3 -5 1 -12 -5 -16 -5 -3 -10 1 -10 9 0 18 6 21 15 7z m2827 -22 c45 -29 51
-54 11 -45 -16 4 -40 15 -54 25 -15 12 -35 17 -51 14 -30 -6 -71 13 -62 29 11
18 115 3 156 -23z m418 9 c0 -13 -5 -30 -10 -38 -14 -23 -34 3 -26 34 8 32 36
35 36 4z m-2950 -8 c0 -5 -5 -10 -11 -10 -5 0 -7 5 -4 10 3 6 8 10 11 10 2 0
4 -4 4 -10z m1095 -72 c19 -18 35 -36 35 -40 0 -18 -77 -6 -127 18 -58 29 -65
40 -30 47 62 12 87 7 122 -25z m-180 12 c8 -13 -15 -13 -35 0 -12 8 -11 10 7
10 12 0 25 -4 28 -10z m1720 0 c8 -13 -5 -13 -25 0 -13 8 -13 10 2 10 9 0 20
-4 23 -10z m-860 -54 c39 -5 65 -16 65 -27 0 -13 -107 -5 -143 10 -37 14 -25
33 16 26 18 -3 46 -7 62 -9z m-1396 -33 c-4 -16 -12 -41 -16 -58 -7 -29 -8
-28 -11 13 -2 24 2 50 9 58 19 23 28 16 18 -13z m1501 17 c0 -5 -7 -10 -15
-10 -8 0 -15 5 -15 10 0 6 7 10 15 10 8 0 15 -4 15 -10z m394 -9 c3 -5 -1 -11
-9 -15 -8 -3 -15 -10 -15 -16 0 -13 73 -2 78 11 6 14 90 10 127 -6 20 -8 39
-24 44 -36 4 -13 10 -18 14 -12 5 7 18 5 40 -6 29 -15 77 -55 77 -65 0 -11
-154 4 -174 18 -13 8 -37 13 -52 11 -16 -2 -32 -4 -36 -4 -4 -1 -5 -8 -2 -16
4 -10 0 -15 -15 -15 -14 0 -19 5 -14 15 3 9 2 15 -3 13 -8 -2 -59 18 -104 41
-18 9 -26 51 -11 51 6 0 11 6 11 14 0 21 34 34 44 17z m-89 -27 c-73 -16 -112
-29 -122 -42 -18 -22 -27 -8 -12 17 7 11 25 22 39 24 34 5 120 6 95 1z m732
-26 c-3 -8 -6 -5 -6 6 -1 11 2 17 5 13 3 -3 4 -12 1 -19z m-20 -122 c-3 -49
-2 -76 5 -78 8 -3 8 -14 0 -38 -5 -19 -18 -62 -27 -95 -10 -33 -21 -69 -25
-80 -5 -11 -11 -29 -14 -40 -12 -48 -35 -100 -45 -103 -6 -2 -11 1 -11 7 0 6
-4 11 -10 11 -5 0 -10 -13 -10 -29 0 -24 3 -28 20 -24 24 6 26 -8 6 -45 -7
-15 -21 -43 -29 -62 -9 -19 -24 -48 -34 -65 -10 -16 -19 -31 -19 -33 -1 -2
-13 0 -27 3 l-24 7 19 51 c11 29 23 57 28 62 10 12 34 103 56 210 18 87 32
115 45 93 4 -7 11 -9 15 -5 4 3 1 14 -6 22 -10 12 -10 19 -2 27 7 7 12 21 12
33 0 11 7 31 16 43 9 13 14 26 11 29 -3 3 2 26 12 52 10 25 21 63 25 84 12 63
19 41 13 -37z m-487 28 c0 -8 -5 -12 -10 -9 -6 4 -8 11 -5 16 9 14 15 11 15
-7z m-1552 -2 c13 -9 6 -72 -9 -72 -5 0 -6 7 -3 14 4 11 -4 18 -27 23 -42 11
-48 30 -12 36 15 2 30 5 33 5 3 1 11 -2 18 -6z m547 -2 c-3 -5 -15 -10 -26
-10 -11 0 -17 5 -14 10 3 6 15 10 26 10 11 0 17 -4 14 -10z m511 -47 c-2 -2
-23 0 -47 4 -42 7 -43 7 -14 13 26 5 71 -8 61 -17z m-5235 -11 c10 -25 -13
-54 -36 -46 -18 7 -19 28 -3 54 15 24 28 21 39 -8z m5160 -13 c16 -11 29 -27
29 -34 0 -34 -90 -47 -150 -21 -33 14 -70 11 -70 -5 0 -5 -4 -9 -10 -9 -5 0
-10 7 -10 15 0 8 -4 15 -10 15 -5 0 -10 9 -10 21 0 12 4 17 11 14 6 -4 18 1
28 11 25 27 151 22 192 -7z m373 -10 c5 -5 -3 -13 -20 -19 -35 -14 -104 -19
-104 -8 0 4 -7 8 -15 8 -20 0 -19 17 3 29 19 12 121 4 136 -10z m-1194 -21
c40 2 106 -24 114 -44 3 -9 -6 -15 -27 -18 -28 -5 -44 -4 -91 3 -4 0 -6 10 -3
21 5 21 -8 29 -15 9 -3 -8 -10 -8 -26 2 -27 17 -31 45 -4 33 9 -4 33 -7 52 -6z
m1338 -5 c-4 -30 11 -43 50 -43 77 -1 167 -69 134 -102 -9 -9 -17 -7 -35 10
-15 14 -36 22 -58 22 -22 0 -48 10 -69 25 -30 22 -35 23 -50 10 -22 -20 -27
-19 -33 6 -4 15 -11 20 -21 16 -10 -4 -16 -1 -16 8 0 8 11 17 24 21 14 3 32
14 42 25 21 24 36 24 32 2z m-1982 -70 c-10 -11 -26 18 -25 47 0 24 1 23 16
-7 9 -18 13 -36 9 -40z m1921 -61 c-19 -4 -57 15 -57 28 0 5 16 2 36 -8 23
-11 31 -18 21 -20z m298 -2 c0 -7 -6 -15 -12 -17 -8 -3 -13 4 -13 17 0 13 5
20 13 18 6 -3 12 -11 12 -18z m89 -9 c9 -14 -17 -29 -44 -26 -36 4 -37 4 -16
20 22 17 52 20 60 6z m-1324 -26 c14 -16 10 -18 -14 -9 -9 3 -16 10 -16 15 0
14 16 11 30 -6z m116 -26 c7 -13 -9 -26 -44 -35 -30 -8 -36 -1 -22 25 12 23
54 29 66 10z m201 -24 c20 -13 40 -22 45 -19 10 7 78 -43 78 -57 0 -14 -38
-49 -55 -49 -8 0 -14 6 -12 12 1 8 -8 12 -25 10 -39 -5 -73 15 -58 33 10 12 6
21 -19 46 -17 17 -31 35 -31 40 0 17 41 9 77 -16z m-722 -5 c3 -5 -3 -10 -15
-10 -12 0 -18 5 -15 10 3 6 10 10 15 10 5 0 12 -4 15 -10z m128 -6 c9 -10 -4
-34 -19 -34 -8 0 -14 -7 -14 -16 0 -11 5 -14 16 -10 8 3 26 3 38 0 17 -4 22
-13 23 -39 1 -33 0 -34 -50 -40 -61 -9 -78 7 -70 63 6 45 57 95 76 76z m497
-12 c0 -13 -12 -22 -22 -16 -10 6 -1 24 13 24 5 0 9 -4 9 -8z m290 -38 c0 -8
-5 -12 -10 -9 -6 4 -8 11 -5 16 9 14 15 11 15 -7z m340 -4 c0 -13 -11 -13 -30
0 -12 8 -11 10 8 10 12 0 22 -4 22 -10z m-192 -37 c2 -9 -8 -13 -32 -13 -34 0
-44 8 -29 24 11 11 56 2 61 -11z m62 2 c-12 -15 -30 -12 -30 6 0 5 10 9 21 9
18 0 19 -2 9 -15z m225 -60 c0 -18 -6 -20 -45 -17 -64 5 -122 21 -114 33 3 5
39 9 82 7 69 -3 77 -5 77 -23z m-500 -135 c3 -5 -1 -10 -10 -10 -9 0 -13 5
-10 10 3 6 8 10 10 10 2 0 7 -4 10 -10z m360 -50 c17 -6 14 -9 -17 -15 -27 -5
-38 -12 -38 -25 0 -19 -19 -30 -54 -30 -12 0 -27 -5 -33 -11 -6 -6 -23 -9 -39
-7 -23 2 -30 9 -32 30 -3 22 2 29 23 34 19 5 30 1 39 -12 13 -17 15 -17 55 0
22 11 41 25 41 33 0 14 24 16 55 3z m1305 -31 c-23 -32 -53 -36 -58 -7 -2 12
7 20 30 27 50 14 51 13 28 -20z m-1123 -31 c39 -14 41 -41 3 -46 -24 -4 -50
19 -50 45 0 16 5 16 47 1z m333 -2 c0 -37 -94 -156 -123 -156 -24 0 -21 12 13
55 17 21 30 41 30 45 0 3 11 13 25 20 14 7 25 19 25 27 0 7 7 13 15 13 8 0 15
-2 15 -4z m-1645 -15 c8 -14 -13 -24 -33 -16 -14 5 -14 7 -2 15 19 12 27 12
35 1z m1385 -1 c0 -5 -8 -10 -17 -10 -15 0 -16 2 -3 10 19 12 20 12 20 0z
m-834 -54 c3 -14 3 -29 0 -34 -3 -4 24 -4 60 1 68 10 94 1 94 -31 0 -22 -30
-52 -51 -52 -10 0 -21 -5 -25 -11 -8 -13 -69 -5 -90 12 -8 6 -14 22 -14 36 0
20 -3 22 -19 13 -11 -5 -22 -18 -26 -29 -3 -12 -18 -21 -38 -24 -44 -6 -55 3
-23 20 29 15 35 43 9 43 -25 -1 -53 -24 -53 -44 0 -9 -7 -16 -16 -16 -11 0
-15 8 -12 27 4 40 -35 58 -95 42 -37 -9 -50 -8 -76 6 -48 24 -34 41 31 37 33
-2 64 1 75 9 30 18 73 4 66 -21 -7 -27 25 -27 60 0 14 11 33 20 44 20 10 0 25
5 33 10 28 18 59 12 66 -14z m541 7 c2 -6 -12 -19 -32 -29 -34 -16 -38 -16
-53 0 -15 15 -14 16 15 16 19 0 33 6 37 16 6 17 27 15 33 -3z m303 -4 c0 -5
-4 -9 -10 -9 -5 0 -10 7 -10 16 0 8 5 12 10 9 6 -3 10 -10 10 -16z m-192 -16
c2 -8 -6 -13 -22 -13 -26 0 -40 12 -29 24 11 11 46 2 51 -11z m72 -22 c-6 -12
-15 -19 -21 -16 -13 8 -11 29 3 43 18 18 32 -2 18 -27z m45 -1 c3 -5 2 -10 -4
-10 -5 0 -13 5 -16 10 -3 6 -2 10 4 10 5 0 13 -4 16 -10z m165 -125 c-21 -26
-31 -16 -13 11 9 15 19 21 21 15 2 -6 -2 -18 -8 -26z m-456 -30 c9 -14 14 -26
11 -26 -3 -1 -8 -2 -12 -4 -59 -16 -63 -18 -63 -40 0 -28 -11 -37 -29 -26 -21
14 -4 91 20 91 10 0 19 7 19 15 0 24 36 17 54 -10z m406 -39 c0 -16 -18 -31
-27 -22 -8 8 5 36 17 36 5 0 10 -6 10 -14z m-1595 -16 c3 -5 -1 -10 -9 -10 -9
0 -16 5 -16 10 0 6 4 10 9 10 6 0 13 -4 16 -10z m430 -24 c35 -15 44 -29 26
-41 -15 -9 -91 26 -91 41 0 18 22 18 65 0z m-721 -17 c-3 -5 -10 -7 -15 -3 -5
3 -7 10 -3 15 3 5 10 7 15 3 5 -3 7 -10 3 -15z m1580 15 c19 -7 23 -68 4 -61
-7 2 -13 11 -13 20 0 8 -4 19 -8 23 -8 8 -10 24 -3 24 2 0 11 -3 20 -6z
m-1061 -11 c-7 -2 -19 -2 -25 0 -7 3 -2 5 12 5 14 0 19 -2 13 -5z m-453 -44
c0 -10 -4 -19 -9 -19 -14 0 -33 28 -27 39 10 16 36 1 36 -20z m510 11 c0 -5
-4 -10 -10 -10 -5 0 -10 5 -10 10 0 6 5 10 10 10 6 0 10 -4 10 -10z m1260 0
c0 -5 -2 -10 -4 -10 -3 0 -8 5 -11 10 -3 6 -1 10 4 10 6 0 11 -4 11 -10z m-30
-39 c0 -11 -20 -37 -45 -59 -25 -22 -45 -44 -45 -49 0 -14 -35 -53 -48 -53 -6
0 -12 -6 -15 -12 -3 -9 -8 -10 -16 -2 -8 8 -1 19 29 43 22 17 47 46 57 64 17
34 63 87 75 87 5 0 8 -9 8 -19z m-1468 -32 c3 -16 1 -32 -3 -35 -10 -6 -29 29
-29 55 0 32 27 15 32 -20z m557 32 c7 -5 10 -14 7 -20 -4 -6 1 -14 11 -17 10
-3 26 -10 35 -15 24 -12 28 -11 28 6 0 22 17 18 35 -7 15 -22 14 -23 -17 -31
-77 -18 -128 -7 -128 29 0 13 5 24 10 24 14 0 12 27 -2 33 -7 3 -8 6 -3 6 6 0
16 -3 24 -8z m-751 -67 c12 -8 22 -21 22 -29 0 -7 11 -26 24 -42 36 -43 15
-73 -26 -36 -10 9 -18 27 -18 41 0 13 -9 37 -21 53 -23 32 -15 37 19 13z m692
1 c10 -12 10 -15 -4 -15 -9 0 -16 7 -16 15 0 8 2 15 4 15 2 0 9 -7 16 -15z
m360 -105 c0 -5 -2 -10 -4 -10 -3 0 -8 5 -11 10 -3 6 -1 10 4 10 6 0 11 -4 11
-10z m381 -78 c-12 -22 -41 -37 -41 -20 0 12 41 50 47 44 3 -2 0 -13 -6 -24z
m-938 -14 c8 -29 1 -38 -29 -38 -29 0 -42 24 -24 45 18 22 47 18 53 -7z m867
2 c0 -5 -5 -10 -11 -10 -5 0 -7 5 -4 10 3 6 8 10 11 10 2 0 4 -4 4 -10z
m-1204 -37 c-7 -7 -26 7 -26 19 0 6 6 6 15 -2 9 -7 13 -15 11 -17z m477 10
c21 -3 40 -10 43 -14 11 -18 -28 -21 -67 -6 -35 14 -41 14 -46 1 -7 -18 -33
-18 -33 1 0 18 31 36 50 29 8 -3 32 -8 53 -11z m547 7 c0 -5 -2 -10 -4 -10 -3
0 -8 5 -11 10 -3 6 -1 10 4 10 6 0 11 -4 11 -10z m180 -15 c-7 -9 -15 -13 -17
-11 -7 7 7 26 19 26 6 0 6 -6 -2 -15z m-1250 -31 c0 -8 -4 -12 -10 -9 -5 3
-10 10 -10 16 0 5 5 9 10 9 6 0 10 -7 10 -16z m75 -13 c8 -17 11 -32 6 -35 -5
-3 -11 2 -14 12 -2 9 -8 25 -12 35 -12 28 3 19 20 -12z m1125 8 c0 -14 -67
-79 -81 -79 -18 0 -8 23 25 56 35 35 56 43 56 23z m-1061 -190 c37 -105 53
-138 71 -144 30 -10 47 -85 19 -85 -19 0 -67 62 -84 108 -9 26 -34 82 -56 125
-21 43 -41 95 -45 115 l-7 37 40 -46 c22 -26 49 -73 62 -110z m-4 121 c3 -5 1
-10 -4 -10 -6 0 -11 5 -11 10 0 6 2 10 4 10 3 0 8 -4 11 -10z m605 -46 c0 -2
-24 -4 -52 -4 -29 0 -48 4 -41 8 12 7 93 4 93 -4z m-110 -19 c0 -8 -4 -15 -10
-15 -5 0 -10 7 -10 15 0 8 5 15 10 15 6 0 10 -7 10 -15z m430 0 c-7 -8 -17
-15 -22 -15 -6 0 -5 7 2 15 7 8 17 15 22 15 6 0 5 -7 -2 -15z m-32 -75 c-7
-11 -20 -20 -28 -20 -11 1 -8 6 9 20 30 25 34 25 19 0z m-746 -113 c23 -13 28
-21 19 -26 -9 -6 -11 -19 -6 -42 7 -30 6 -32 -9 -20 -8 7 -13 17 -10 23 3 5
-6 31 -20 58 -14 27 -26 53 -25 57 0 5 5 -1 10 -12 5 -11 24 -28 41 -38z m658
38 c0 -17 -35 -55 -50 -55 -17 0 -11 29 10 50 24 24 40 26 40 5z m-504 -153
c6 -9 15 -32 19 -49 8 -40 -14 -45 -42 -10 -27 34 -40 39 -56 22 -13 -13 -16
-13 -21 0 -4 10 1 15 14 15 17 0 20 7 20 41 l0 40 27 -21 c15 -11 32 -28 39
-38z m338 46 c-14 -23 -69 -93 -79 -100 -17 -13 -35 -9 -35 8 0 18 88 103 108
104 8 0 10 -5 6 -12z m-514 -60 c0 -13 -23 -5 -28 10 -2 7 2 10 12 6 9 -3 16
-11 16 -16z m22 -80 c-7 -7 -12 -8 -12 -2 0 14 12 26 19 19 2 -3 -1 -11 -7
-17z m328 -3 c0 -8 -7 -15 -15 -15 -26 0 -18 20 13 29 1 1 2 -6 2 -14z m-84
-42 c-10 -10 -19 5 -10 18 6 11 8 11 12 0 2 -7 1 -15 -2 -18z m-26 7 c0 -5 -7
-10 -15 -10 -8 0 -15 5 -15 10 0 6 7 10 15 10 8 0 15 -4 15 -10z m149 -27 c10
-7 -32 -53 -49 -53 -28 0 -34 17 -10 30 11 6 20 20 20 32 0 18 2 19 18 7 9 -7
19 -14 21 -16z m-309 -23 c0 -5 -7 -10 -16 -10 -8 0 -12 5 -9 10 3 6 10 10 16
10 5 0 9 -4 9 -10z m85 -20 c3 -5 15 -10 26 -10 12 0 19 -7 19 -18 0 -10 5
-23 12 -30 8 -8 8 -12 1 -12 -6 0 -13 7 -17 15 -3 8 -18 15 -34 15 -30 0 -52
16 -52 37 0 15 36 18 45 3z m115 -55 c0 -8 -4 -15 -10 -15 -5 0 -10 7 -10 15
0 8 5 15 10 15 6 0 10 -7 10 -15z m-190 -30 c14 -16 6 -35 -16 -35 -8 0 -14
10 -14 25 0 28 12 32 30 10z m-1180 -499 c0 -20 0 -20 -15 0 -8 10 -14 28 -14
39 0 20 0 20 14 1 8 -11 15 -29 15 -40z"/>
<path d="M4995 8791 c-81 -36 -120 -111 -113 -216 5 -76 37 -130 99 -164 34
-19 52 -23 108 -19 80 4 128 34 161 99 49 95 35 188 -39 260 -65 62 -138 76
-216 40z"/>
<path d="M5793 8803 c-12 -2 -42 -22 -67 -44 -163 -144 -33 -419 175 -369 55
13 113 64 136 117 7 18 13 61 13 97 0 55 -4 70 -32 112 -51 76 -128 106 -225
87z"/>
<path d="M6454 8797 c-2 -7 -3 -58 -2 -113 l3 -99 50 -3 c122 -8 182 22 192
95 7 56 -11 98 -52 117 -42 20 -183 22 -191 3z"/>
<path d="M5415 7776 c-119 -44 -162 -199 -84 -306 79 -109 226 -101 296 17 91
155 -50 347 -212 289z"/>
<path d="M6107 7776 c-76 -28 -117 -95 -117 -192 0 -110 76 -189 180 -189 69
0 114 27 154 92 64 107 10 262 -102 293 -48 13 -69 12 -115 -4z"/>
<path d="M2042 7720 c-59 -146 -72 -183 -69 -187 3 -2 41 -3 85 -1 l81 3 -35
85 c-57 139 -50 129 -62 100z"/>
<path d="M3212 7653 c-52 -136 -56 -123 37 -123 45 0 81 3 81 7 0 15 -75 193
-82 193 -3 0 -20 -35 -36 -77z"/>
<path d="M3760 7720 l0 -71 81 3 c75 3 84 5 102 30 45 60 -9 108 -123 108
l-60 0 0 -70z"/>
<path d="M3760 7465 l0 -75 75 0 c119 0 167 31 151 96 -9 36 -60 54 -151 54
l-75 0 0 -75z"/>
<path d="M6715 7778 c-3 -8 -4 -57 -3 -109 l3 -94 66 0 c103 0 139 30 139 115
0 26 -7 48 -22 65 -20 23 -33 27 -100 32 -63 5 -79 3 -83 -9z"/>
<path d="M8327 7700 c-39 -92 -67 -164 -64 -166 7 -7 152 -6 154 2 4 13 -15
66 -47 138 l-28 61 -15 -35z"/>
<path d="M4410 6370 c-8 -5 -11 -12 -7 -16 4 -4 13 -2 19 4 15 15 7 24 -12 12z"/>
<path d="M4537 6323 c-4 -3 -7 -15 -7 -25 0 -13 -7 -18 -26 -18 -19 0 -25 -5
-22 -17 8 -44 70 -12 80 41 5 25 -9 36 -25 19z"/>
<path d="M3978 6283 c-6 -43 -2 -51 13 -36 18 18 21 73 5 73 -8 0 -16 -15 -18
-37z"/>
<path d="M3990 6114 c0 -8 5 -12 10 -9 6 3 10 10 10 16 0 5 -4 9 -10 9 -5 0
-10 -7 -10 -16z"/>
<path d="M4417 6006 c-42 -39 -49 -61 -14 -50 27 8 76 54 77 72 0 22 -25 13
-63 -22z"/>
<path d="M4371 5904 c0 -11 3 -14 6 -6 3 7 2 16 -1 19 -3 4 -6 -2 -5 -13z"/>
<path d="M4001 5838 c-16 -44 3 -59 23 -20 20 38 20 52 2 52 -8 0 -19 -14 -25
-32z"/>
<path d="M4267 5846 c-4 -10 -1 -13 9 -9 7 3 14 9 14 14 0 14 -17 10 -23 -5z"/>
<path d="M4237 5803 c-4 -3 -7 -11 -7 -17 0 -6 5 -5 12 2 6 6 9 14 7 17 -3 3
-9 2 -12 -2z"/>
<path d="M3598 5707 c-59 -50 -70 -61 -90 -101 -23 -45 -15 -59 29 -50 29 6
31 8 20 31 -9 21 -8 27 8 40 33 24 64 27 85 8 18 -16 20 -16 39 16 11 19 30
44 42 56 l22 22 -34 4 c-59 9 -87 3 -121 -26z"/>
<path d="M3917 5693 c-11 -10 -8 -95 2 -88 13 7 41 64 41 82 0 13 -31 18 -43
6z"/>
<path d="M3623 5593 c-29 -6 -33 -53 -5 -53 28 0 56 25 49 44 -4 9 -10 15 -14
15 -4 -1 -18 -4 -30 -6z"/>
<path d="M3486 5504 c-10 -25 -7 -34 9 -28 8 4 15 15 15 25 0 23 -16 25 -24 3z"/>
<path d="M3565 5470 c-3 -5 3 -10 14 -10 12 0 21 5 21 10 0 6 -6 10 -14 10 -8
0 -18 -4 -21 -10z"/>
<path d="M3165 5426 c-17 -12 -17 -13 9 -20 20 -5 25 -10 18 -19 -5 -7 -12
-31 -16 -53 -5 -34 -3 -43 11 -48 9 -4 20 -1 24 6 11 18 22 115 15 133 -7 19
-36 19 -61 1z"/>
<path d="M3425 5401 c-3 -5 -1 -12 5 -16 5 -3 10 1 10 9 0 18 -6 21 -15 7z"/>
<path d="M4027 5359 c-26 -29 -47 -57 -47 -64 0 -6 -13 -24 -30 -40 -16 -16
-30 -39 -30 -51 0 -13 -5 -26 -10 -29 -6 -4 -8 -10 -5 -15 10 -16 84 30 106
66 12 19 19 38 16 41 -3 3 3 15 14 27 11 12 18 29 15 40 -3 10 2 29 11 43 29
43 7 34 -40 -18z"/>
<path d="M3836 5304 c-9 -23 -8 -24 14 -24 13 0 20 7 20 20 0 24 -25 27 -34 4z"/>
<path d="M2991 5193 c-10 -19 2 -53 18 -53 9 0 45 50 39 55 -2 1 -13 6 -25 9
-16 5 -25 2 -32 -11z"/>
<path d="M3527 5144 c-3 -3 3 -21 14 -40 23 -42 24 -73 3 -88 -11 -9 -13 -18
-6 -36 9 -24 9 -24 40 19 24 34 32 55 32 88 0 26 -5 45 -12 47 -34 11 -66 15
-71 10z"/>
<path d="M3837 5060 c-3 -11 -1 -23 4 -26 5 -3 9 6 9 20 0 31 -6 34 -13 6z"/>
<path d="M3392 4898 c-14 -14 -16 -38 -4 -38 12 0 32 23 32 37 0 16 -12 17
-28 1z"/>
<path d="M3500 4890 c-9 -6 -10 -10 -3 -10 6 0 13 -12 15 -27 l4 -28 8 28 c10
33 -2 51 -24 37z"/>
<path d="M3596 4865 c-3 -8 -1 -15 3 -15 5 0 11 7 15 15 3 8 1 15 -3 15 -5 0
-11 -7 -15 -15z"/>
<path d="M3492 4797 c-7 -16 -12 -36 -12 -46 0 -10 -10 -25 -22 -33 l-22 -15
27 -46 c16 -26 34 -47 41 -47 18 0 20 86 2 102 -10 9 -11 20 -4 40 5 15 8 37
6 50 -4 22 -5 22 -16 -5z"/>
<path d="M3590 4771 c-5 -11 -10 -27 -10 -35 0 -24 25 -19 37 7 18 40 -6 66
-27 28z"/>
<path d="M6264 5954 c-4 -17 -2 -29 6 -34 9 -5 10 -19 6 -44 -5 -27 -3 -36 7
-36 24 0 37 23 37 66 0 33 -5 45 -25 58 -24 16 -25 15 -31 -10z"/>
<path d="M7105 5787 c-4 -10 -5 -21 -1 -24 10 -10 18 4 13 24 -4 17 -4 17 -12
0z"/>
<path d="M6960 5636 c0 -15 80 -57 93 -49 15 9 6 29 -24 46 -37 21 -69 22 -69
3z"/>
<path d="M6926 5563 c-3 -3 -3 -10 0 -14 7 -12 34 -11 34 0 0 11 -26 22 -34
14z"/>
<path d="M7240 5420 c0 -5 5 -10 10 -10 6 0 10 5 10 10 0 6 -4 10 -10 10 -5 0
-10 -4 -10 -10z"/>
<path d="M7417 5423 c-4 -3 -7 -11 -7 -17 0 -6 5 -5 12 2 6 6 9 14 7 17 -3 3
-9 2 -12 -2z"/>
<path d="M7551 5346 c-9 -10 -9 -16 -1 -21 17 -10 37 12 24 25 -8 8 -15 6 -23
-4z"/>
<path d="M7340 5320 c0 -5 5 -10 10 -10 6 0 10 5 10 10 0 6 -4 10 -10 10 -5 0
-10 -4 -10 -10z"/>
<path d="M5023 5283 c-28 -5 -29 -19 -5 -32 13 -7 23 -6 30 1 13 13 16 39 5
37 -5 -1 -18 -4 -30 -6z"/>
<path d="M4902 5101 c-8 -5 -12 -19 -10 -32 l3 -24 13 23 c16 28 12 45 -6 33z"/>
<path d="M4765 5027 c-4 -10 -5 -21 -1 -24 10 -10 18 4 13 24 -4 17 -4 17 -12
0z"/>
<path d="M4623 4775 c-8 -22 6 -33 17 -15 13 20 12 30 0 30 -6 0 -13 -7 -17
-15z"/>
<path d="M4580 4495 c0 -8 -6 -15 -12 -16 -7 0 0 -5 15 -9 40 -12 59 -3 46 21
-12 23 -49 26 -49 4z"/>
<path d="M5320 4894 c0 -9 7 -14 17 -12 25 5 28 28 4 28 -12 0 -21 -6 -21 -16z"/>
<path d="M5551 4799 c-39 -39 -43 -41 -68 -30 -18 8 -29 9 -37 1 -12 -12 1
-27 29 -32 36 -6 32 -55 -9 -97 -19 -20 -40 -51 -47 -69 -6 -17 -15 -32 -21
-32 -5 0 -22 -14 -37 -31 -29 -31 -29 -31 -9 -51 14 -14 18 -27 14 -44 -6 -23
17 -74 33 -74 10 0 37 58 45 95 4 17 20 46 36 65 58 67 80 106 90 160 6 30 14
56 18 59 17 12 22 41 7 41 -23 0 -27 18 -9 45 28 43 8 39 -35 -6z"/>
<path d="M5307 4363 c-4 -3 -7 -12 -7 -20 0 -17 26 -17 33 1 8 21 -11 35 -26
19z"/>
<path d="M5451 4321 c-7 -5 -12 -14 -10 -20 2 -6 10 -2 17 9 14 22 13 23 -7
11z"/>
<path d="M5285 4290 c-4 -17 -15 -36 -26 -43 -10 -6 -19 -22 -19 -34 0 -12 -9
-27 -20 -33 -11 -6 -20 -16 -20 -23 0 -7 -9 -18 -20 -25 -25 -15 -26 -47 -2
-58 26 -11 82 -16 83 -7 0 4 2 23 4 41 3 32 2 33 -26 27 -16 -4 -29 -2 -29 3
0 11 50 35 58 28 3 -3 16 7 28 22 19 21 24 39 24 80 0 59 -24 74 -35 22z"/>
<path d="M5371 4296 c-6 -7 -9 -15 -6 -18 3 -3 -2 -21 -10 -41 -20 -48 -19
-57 5 -57 22 0 27 16 8 23 -10 3 -9 9 3 23 20 23 32 71 20 78 -5 3 -14 0 -20
-8z"/>
<path d="M1497 4543 c-13 -12 -7 -33 8 -33 8 0 15 9 15 20 0 20 -11 26 -23 13z"/>
<path d="M7900 2840 c0 -5 5 -10 10 -10 6 0 10 5 10 10 0 6 -4 10 -10 10 -5 0
-10 -4 -10 -10z"/>
</g>
</svg>
